<svg width="24" height="24" viewBox="0 0 24 24" fill="none" xmlns="http://www.w3.org/2000/svg">
<path d="M10.6744 12.72C11.6044 12.47 12.3144 12.155 12.8044 11.775C13.2944 11.395 13.5394 10.915 13.5394 10.335C13.5394 9.895 13.3644 9.535 13.0144 9.255C12.6744 8.965 12.2544 8.82 11.7544 8.82C11.3344 8.82 10.9394 8.965 10.5694 9.255C10.1994 9.535 9.88443 9.915 9.62443 10.395L8.49943 9.45C8.90943 8.81 9.40943 8.305 9.99943 7.935C10.5994 7.555 11.2344 7.365 11.9044 7.365C12.5244 7.365 13.0844 7.495 13.5844 7.755C14.0844 8.005 14.4844 8.355 14.7844 8.805C15.0844 9.255 15.2344 9.765 15.2344 10.335C15.2344 10.825 15.1044 11.28 14.8444 11.7C14.5844 12.11 14.2444 12.47 13.8244 12.78C13.4044 13.08 12.9544 13.315 12.4744 13.485L12.2194 14.835H11.0644L10.6744 12.72ZM11.5744 18.165C11.2244 18.165 10.9644 18.065 10.7944 17.865C10.6244 17.655 10.5394 17.38 10.5394 17.04C10.5394 16.75 10.6244 16.49 10.7944 16.26C10.9644 16.03 11.2244 15.915 11.5744 15.915C11.9244 15.915 12.1844 16.02 12.3544 16.23C12.5244 16.43 12.6094 16.7 12.6094 17.04C12.6094 17.32 12.5244 17.58 12.3544 17.82C12.1844 18.05 11.9244 18.165 11.5744 18.165Z" fill="#7E7E7E"/>
<circle cx="12" cy="13" r="9" stroke="#7E7E7E" stroke-width="2"/>
</svg>
